<!DOCTYPE svg PUBLIC "-//W3C//DTD SVG 1.1//EN" "http://www.w3.org/Graphics/SVG/1.1/DTD/svg11.dtd">
<!-- Uploaded to: SVG Repo, www.svgrepo.com, Transformed by: SVG Repo Mixer Tools -->
<svg height="800px" width="800px" version="1.1" id="_x32_" xmlns="http://www.w3.org/2000/svg" xmlns:xlink="http://www.w3.org/1999/xlink" viewBox="0 0 512 512" xml:space="preserve" fill="#52489c" stroke="#52489c">
<g id="SVGRepo_bgCarrier" stroke-width="0"/>
<g id="SVGRepo_tracerCarrier" stroke-linecap="round" stroke-linejoin="round"/>
<g id="SVGRepo_iconCarrier"> <style type="text/css"> .st0{fill:##52489c;} </style> <g> <path class="st0" d="M320.707,0L37.037,69.971v417.625L320.447,512l154.516-26.258V62.568L320.707,0z M290.346,471.742 l-92.584-7.974v-79.426l-55.086-0.677v75.36l-68.109-5.866V99.367l215.779-53.224V471.742z"/> <polygon class="st0" points="271.25,76.933 226.537,86.32 226.537,138.956 271.25,131.246 "/> <polygon class="st0" points="118.574,112.033 87.416,118.622 87.416,164.818 118.574,159.469 "/> <polygon class="st0" points="190.012,95.942 150.426,104.23 150.426,153.027 190.012,146.202 "/> <polygon class="st0" points="118.576,203.184 87.416,207.448 87.416,253.722 118.576,250.622 "/> <polygon class="st0" points="190.012,192.792 150.426,198.154 150.426,246.952 190.012,243.052 "/> <polygon class="st0" points="271.25,181.04 226.537,187.097 226.537,238.911 271.25,234.506 "/> <polygon class="st0" points="271.25,286.135 226.537,288.889 226.537,340.702 271.25,339.6 "/> <polygon class="st0" points="190.012,291.476 150.426,293.914 150.426,342.712 190.012,341.737 "/> <polygon class="st0" points="118.574,296.198 87.416,298.136 87.416,344.409 118.574,343.634 "/> </g> </g>
</svg>